/* XPM */
static char * background_xpm[] = {
"32 32 26 1",
"  c None",
". c #001C40",
"X c #A40003",
"o c #BB1120",
"O c #D81809",
"+ c #EE0004",
"@ c #D85D09",
"# c #FF5B1F",
"$ c #F04040",
"% c #14EE14",
"& c #289445",
"* c #58D162",
"= c #FFA61F",
"- c #FF9956",
"; c #DCAD6B",
": c #FFD156",
"> c #FFC579",
", c #1759D4",
"< c #267AE9",
"1 c #1798D4",
"2 c #26BBE9",
"3 c #4FB8FF",
"4 c #4FF3FF",
"5 c #E5E0CC",
"6 c #FFFDF5",
"7 c white",
"  ............................  ",
" .3333333333333333333333333333. ",
".333333333333333333333333333333.",
".33<<<<<<<<<<<<<<<<<<<<<<<<<<33.",
".3<<<<<<<<<<<<<<<<<<<<<<<<<<<<3.",
".,<<<<<<<<<<<<<<<<<<<<<<<<<<<<3.",
".,<<<<<<<<<<<<<<<<<<<<<<<<<<<<3.",
".,<<<<<<<<<<<<<<<<<<<<<<<<<<<<3.",
".,<<<<<<<<<<<<<<<<<<<<<<<<<<<<3.",
".,<<<<<<<<<<<<<<<<<<<<<<<<<<<<3.",
".,<<<<<<<<<<<<<<<<<<<<<<<<<<<<3.",
".,<<<<<<<<<<<<<<<<<<<<<<<<<<<<3.",
".,<<<<<<<<<<<<<<<<<<<<<<<<<<<<3.",
".,<<<<<<<<<<<<<<<<<<<<<<<<<<<<3.",
".,<<<<<<<<<<<<<<<<<<<<<<<<<<<<3.",
".,<<<<<<<<<<<<<<<<<<<<<<<<<<<<3.",
".,<<<<<<<<<<<<<<<<<<<<<<<<<<<<3.",
".,<<<<<<<<<<<<<<<<<<<<<<<<<<<<3.",
".,<<<<<<<<<<<<<<<<<<<<<<<<<<<<3.",
".,<<<<<<<<<<<<<<<<<<<<<<<<<<<<3.",
".,<<<<<<<<<<<<<<<<<<<<<<<<<<<<3.",
".,<<<<<<<<<<<<<<<<<<<<<<<<<<<<3.",
".,<<<<<<<<<<<<<<<<<<<<<<<<<<<<3.",
".,<<<<<<<<<<<<<<<<<<<<<<<<<<<<3.",
".,<<<<<<<<<<<<<<<<<<<<<<<<<<<<3.",
".,<<<<<<<<<<<<<<<<<<<<<<<<<<<<3.",
".,<<<<<<<<<<<<<<<<<<<<<<<<<<<<3.",
".,<<<<<<<<<<<<<<<<<<<<<<<<<<<<,.",
".,,<<<<<<<<<<<<<<<<<<<<<<<<<<,,.",
".,,,,,,,,,,,,,,,,,,,,,,,,,,,,,,.",
" .,,,,,,,,,,,,,,,,,,,,,,,,,,,,. ",
"  ............................  "};
