/* XPM */
static char * GhostRight_xpm[] = {
"32 32 28 1",
"   c None",
"$  c #3A0911",
"g  c #811426",
"v  c #A11B31",
"&  c white",
"%  c black",
". c #001C40",
"X c #A40003",
"o c #BB1120",
"O c #D81809",
"+ c #EE0004",
"@ c #D85D09",
"# c #FF5B1F",
"* c #58D162",
"= c #FFA61F",
"- c #FF9956",
"; c #DCAD6B",
": c #FFD156",
"> c #FFC579",
", c #1759D4",
"< c #267AE9",
"1 c #1798D4",
"2 c #26BBE9",
"3 c #4FB8FF",
"4 c #4FF3FF",
"5 c #E5E0CC",
"6 c #FFFDF5",
"7 c white",
/* pixels */
"  ............................  ",
" .3333333333333333333333333333. ",
".333333333333333333333333333333.",
".33<<<<<<<<<<<<<<<<<<<<<<<<<<33.",
".3<<<<<<<<<<$$$$$$$<<<<<<<<<<<3.",
".,<<<<<<<<<$gvvvvvv$<<<<<<<<<<3.",
".,<<<<<<<<$gvvv$$$$v$<<<<<<<<<3.",
".,<<<<<<<$gvvv$%%%%$v$<<<<<<<<3.",
".,<<<<<<$gvv$%%%%%%$v$<<<<<<<<3.",
".,<<<<<$ggvv$%%%%%%$v$<<<<<<<<3.",
".,<<<<<$gggv$%&%%%&$v$<<<<<<<<3.",
".,<<<<<$g$gv$%&%%%&$v$<<<<<<<<3.",
".,<<<<<$g$gv$%%%%%%$g$<<<<<<<<3.",
".,<<<<<<$$ggv$%%%%%$g$<<<<<<<<3.",
".,<<<<<<<$ggg$%%%$g$<<<<<<<<<<3.",
".,<<<<<<<<<$$gg$$$g$<<<<<<<<<<3.",
".,<<<<<<<<$gggvvvvvg$<<<<<<<<<3.",
".,<<<<<<<$gvvvvvvvvvg$<<<<<<<<3.",
".,<<<<<<<$gvvvvvvvvvg$<<<<<<<<3.",
".,<<<<<<<$vvvvvvvvvvv$<<<<<<<<3.",
".,<<<<<<$gvvvvvvvvvvv$<<<<<<<<3.",
".,<<<<<<$gvvvvvvgvvvvg$<<<<<<<3.",
".,<<<<<<$gvvvvvvgvvvvg$<<<<<<<3.",
".,<<<<<<$gvvvvvg$gvvgg$<<<<<<<3.",
".<<<<<<$gggvgvgg$ggvgg$<<<<<<<3.",
".<<<<<<$ggggvgg$%$gggg$<<<<<<<3.",
".<<<<<<$g$gggg$%%$gg$g$<<<<<<<3.",
".,<<<<<$$g$gg$%%%$gg$<<<<<<<<<3.",
".,<<<<<<<$$$$$%$$$<<<<<<<<<<<<3.",
".,,,,,,,,%%,,,,,,%,,,,,,,,,,,,3.",
" .,,,,,,,%,,,,,,,%,,,,,,,,,,,,. ",
"  .......%.......%............  "};
