/* XPM */
static char * GhostLeft_xpm[] = {
"32 32 28 1",
"   c None",
"$  c #3A0911",
"g  c #811426",
"v  c #A11B31",
"&  c white",
"%  c black",
". c #001C40",
"X c #A40003",
"o c #BB1120",
"O c #D81809",
"+ c #EE0004",
"@ c #D85D09",
"# c #FF5B1F",
"* c #58D162",
"= c #FFA61F",
"- c #FF9956",
"; c #DCAD6B",
": c #FFD156",
"> c #FFC579",
", c #1759D4",
"< c #267AE9",
"1 c #1798D4",
"2 c #26BBE9",
"3 c #4FB8FF",
"4 c #4FF3FF",
"5 c #E5E0CC",
"6 c #FFFDF5",
"7 c white",
/* pixels */
,"  ............................  ",
," .3333333333333333333333333333. ",
,".333333333333333333333333333333.",
,".33<<<<<<<<<<<<<<<<<<<<<<<<<<33.",
,".3<<<<<<<<<<<$$$$$$$<<<<<<<<<<3.",
,".3<<<<<<<<<<$vvvvvvg$<<<<<<<<<,.",
,".3<<<<<<<<<$v$$$$vvvg$<<<<<<<<,.",
,".3<<<<<<<<$v$%%%%$vvvg$<<<<<<<,.",
,".3<<<<<<<<$v$%%%%%%$vvg$<<<<<<,.",
,".3<<<<<<<<$v$%%%%%%$vvgg$<<<<<,.",
,".3<<<<<<<<$v$&%%%&%$vggg$<<<<<,.",
,".3<<<<<<<<$v$&%%%&%$vg$g$<<<<<,.",
,".3<<<<<<<<$g$%%%%%%$vg$g$<<<<<,.",
,".3<<<<<<<<$g$%%%%%$vgg$$<<<<<<,.",
,".3<<<<<<<<<<$g$%%%$ggg$<<<<<<<,.",
,".3<<<<<<<<<<$g$$$gg$$<<<<<<<<<,.",
,".3<<<<<<<<<$gvvvvvggg$<<<<<<<<,.",
,".3<<<<<<<<$gvvvvvvvvvg$<<<<<<<,.",
,".3<<<<<<<<$gvvvvvvvvvg$<<<<<<<,.",
,".3<<<<<<<<$vvvvvvvvvvv$<<<<<<<,.",
,".3<<<<<<<<$vvvvvvvvvvvg$<<<<<<,.",
,".3<<<<<<<$gvvvvgvvvvvvg$<<<<<<,.",
,".3<<<<<<<$gvvvvgvvvvvvg$<<<<<<,.",
,".3<<<<<<<$ggvvg$gvvvvvg$<<<<<<,.",
,".3<<<<<<<$ggvgg$ggvgvggg$<<<<<<.",
,".3<<<<<<<$gggg$%$ggvgggg$<<<<<<.",
,".3<<<<<<<$g$gg$%%$gggg$g$<<<<<<.",
,".3<<<<<<<<<$gg$%%%$gg$g$$<<<<<,.",
,".3<<<<<<<<<<<<$$$%$$$$$<<<<<<<,.",
,".3,,,,,,,,,,,,%,,,,,,%%,,,,,,,,.",
," .,,,,,,,,,,,,%,,,,,,,%,,,,,,,. ",
"  ............%.......%.......  "};
