/* XPM */
static char *result[] = {
/* columns rows colors chars-per-pixel */
"32 32 26 1 ",
"X c #0F379B",
"o c #573CDA",
"O c #1469C3",
"+ c #7962E9",
"@ c #14A0CD",
"# c #41D7D7",
"$ c #9784F0",
"% c #82FFE1",
"& c #A7EDF0",
"* c #E2CBFF",
"= c white",
"  c None",
". c #001C40",
"X c #A40003",
"; c #DCAD6B",
": c #FFD156",
"> c #FFC579",
", c #1759D4",
"< c #267AE9",
"1 c #1798D4",
"2 c #26BBE9",
"3 c #4FB8FF",
"4 c #4FF3FF",
"5 c #E5E0CC",
"6 c #FFFDF5",
"7 c white",
/* pixels */
"  ............................  ",
" .3333333333333333333333333333. ",
".333333333333333333333333333333.",
".33<<<<<<<<<<<<<<<<<<<<<<<<<<33.",
".3<<<<<<<<<<<<<<<<<<<<<<<<<<<<3.",
".,<<<<<<<<<<<<<<<<<<<<<<<<<<<<3.",
".,<<<<<<<<============<<<<<<<<3.",
".,<<<<<<==&&&&&&&&&&%%=.<<<<<<3.",
".,<<<<===&&==&=&&&&%%%#+o.<<<<3.",
".,<<<=%%*=&&&&&&&&%%%#=XXo.<<<3.",
".,<<=%=%%*=&&&&%%%%%#=OOXXo.<<3.",
".,<=%=%%%%*======***+@OOOXXo.<3.",
".,=%=%=%%%%=*****@@@X@OOOXXXo 3.",
".,=%%=%%%%=##%#####@@X@OOOXX.o3.",
".,$=%%%%%%=#%#####@@@X@OOOXX  3.",
".,=$==%%%=##%#####@@@OX@OO  . 3.",
".,=%$$==%=#######@@@OoX@  ... 3.",
".,<=%%$$@@######@@OOoo  ..O. <3.",
".,<<=%=#$$@==OOOOO@@XX..OO. <<3.",
".,<<<=%=##++++++++ooo.OOX. <<<3.",
".,<<<<=%=#+##@@OOOOO.OXX. <<<<3.",
".,<<<<<*###=##@@OOOo.OX. <<<<<3.",
".,<<<<<<*##=##@@OOo.OX. <<<<<<3.",
".,<<<<<<<*##=##@@Oo.O. <<<<<<<3.",
".,<<<<<<<<*##+#@@O.O. <<<<<<<<3.",
".,<<<<<<<<<=#+##@@.. <<<<<<<<<3.",
".,<<<<<<<<<<+@+#@...<<<<<<<<<<3.",
".,<<<<<<<<<<<=+#@..<<<<<<<<<<<,.",
".,,<<<<<<<<<<<=++.<<<<<<<<<<<,,.",
".,,,,,,,,,,,,,,+.,,,,,,,,,,,,,,.",
" .,,,,,,,,,,,,,,,,,,,,,,,,,,,,. ",
"  ............................  "
};
